<svg width="75" height="25" viewBox="0 0 75 25" fill="none" xmlns="http://www.w3.org/2000/svg">
<g clip-path="url(#clip0_76_65)">
<path d="M47.2089 20.5474L38.3198 20.5253C36.5829 20.521 34.9752 19.8129 33.6593 18.7564C31.7266 17.182 30.6883 14.9082 30.6544 12.4275C30.6267 10.3883 31.2736 8.49066 32.568 6.92984C34.1985 4.96265 36.5638 3.94242 39.1132 3.97936C41.0736 4.00768 42.8992 4.56059 44.3905 5.86281C46.2278 7.38423 47.2637 9.62479 47.2064 12.0273L47.2095 20.5474H47.2089ZM40.4858 16.0645L42.6191 19.3351L42.6216 11.5698C42.3907 9.87661 40.9973 8.62118 39.3053 8.53745C38.1413 8.43586 37.0778 8.86193 36.3022 9.65927C35.5076 10.4763 35.1519 11.5858 35.2848 12.7384C35.5113 14.6988 37.1436 16.0503 39.1132 16.0583L40.4852 16.0639L40.4858 16.0645Z" fill="black"/>
<path d="M69.7516 4.02361L74.3469 4.01746L74.3186 14.4408C74.3143 16.1303 73.4932 17.6221 72.3016 18.7427C70.9247 20.0376 69.1484 20.572 67.2748 20.5621C65.8007 20.5548 64.406 20.2808 63.1645 19.4994C61.3574 18.3616 60.2618 16.5336 60.1498 14.3792L60.1479 4.01992L64.739 4.01807L64.7402 14.2087C64.9415 15.8908 66.6292 16.307 68.1784 15.9554C68.9311 15.7849 69.7251 15.1254 69.727 14.2702L69.7503 4.023L69.7516 4.02361Z" fill="black"/>
<path d="M20.8169 24.5858L19.1335 24.6006V20.0603L20.7258 20.0382C22.9521 19.8898 24.7531 18.2077 25.0245 15.9905V4.97304L29.6198 4.97119L29.6216 15.7824C29.5521 20.4667 25.4516 24.5464 20.8169 24.5858Z" fill="black"/>
<path d="M53.3786 20.5456L48.7864 20.5493V11.0945C48.7273 8.20249 50.4747 5.83694 52.9447 4.49531C53.6039 4.19053 54.2471 4.01013 54.9777 4.01198L59.9657 4.02306L56.6327 8.51773L55.3439 8.56329C54.2563 8.73076 53.4586 9.6728 53.3774 10.7669V20.5456H53.3786Z" fill="black"/>
<path d="M29.6211 4.11724L25.0258 4.12832L25.0251 0.00184712L29.6186 0L29.6211 4.11724Z" fill="black"/>
</g>
<g clip-path="url(#clip1_76_65)">
<path d="M10.678 22.4133H4.07842C1.83061 22.4133 0 20.5676 0 18.3013V7.53162H14.76V18.2977C14.76 20.564 12.9294 22.4097 10.6816 22.4097L10.678 22.4133ZM1.4386 8.98208V18.2977C1.4386 19.7662 2.62184 20.9593 4.07842 20.9593H10.678C12.1346 20.9593 13.3178 19.7662 13.3178 18.2977V8.98208H1.4386Z" fill="black"/>
<path d="M4.7149 2.91187H9.6313C11.1131 2.91187 12.3179 4.12663 12.3179 5.6206V6.01585H2.02832V5.6206C2.02832 4.12663 3.23314 2.91187 4.7149 2.91187Z" fill="#E9A322"/>
<path d="M13.0372 6.73746H1.30908V5.62061C1.30908 3.72776 2.83759 2.18665 4.71496 2.18665H9.63136C11.5087 2.18665 13.0372 3.72776 13.0372 5.62061V6.73746ZM2.77285 5.287H11.5699C11.4116 4.35146 10.6024 3.63711 9.63136 3.63711H4.71496C3.74391 3.63711 2.9347 4.35146 2.77645 5.287H2.77285Z" fill="black"/>
</g>
<defs>
<clipPath id="clip0_76_65">
<rect width="55.2133" height="24.6" fill="white" transform="translate(19.1335)"/>
</clipPath>
<clipPath id="clip1_76_65">
<rect width="14.76" height="20.2267" fill="white" transform="translate(0 2.18665)"/>
</clipPath>
</defs>
</svg>
