<svg width="73" height="25" viewBox="0 0 73 25" fill="none" xmlns="http://www.w3.org/2000/svg">
<g clip-path="url(#clip0_76_54)">
<path d="M47.4414 20.811L39.0697 20.7902C37.4339 20.7862 35.9198 20.1242 34.6804 19.1364C32.8602 17.6644 31.8823 15.5385 31.8504 13.2191C31.8243 11.3126 32.4336 9.53836 33.6526 8.07906C35.1882 6.23982 37.4159 5.28595 39.8169 5.32049C41.6632 5.34697 43.3825 5.86391 44.7871 7.08144C46.5174 8.5039 47.493 10.5987 47.4391 12.845L47.442 20.811H47.4414ZM41.1096 16.6196L43.1188 19.6775L43.1211 12.4172C42.9037 10.8342 41.5913 9.6604 39.9978 9.58211C38.9016 9.48713 37.8999 9.88549 37.1695 10.631C36.4212 11.3949 36.0861 12.4322 36.2113 13.5099C36.4247 15.3428 37.962 16.6063 39.8169 16.6138L41.109 16.619L41.1096 16.6196Z" fill="white"/>
<path d="M68.6722 5.36196L73 5.3562L72.9734 15.1016C72.9693 16.6812 72.196 18.076 71.0738 19.1237C69.777 20.3344 68.1041 20.834 66.3395 20.8248C64.9512 20.8179 63.6377 20.5617 62.4684 19.8312C60.7665 18.7674 59.7347 17.0583 59.6292 15.044L59.6274 5.3585L63.9513 5.35678L63.9524 14.8846C64.142 16.4573 65.7315 16.8464 67.1905 16.5177C67.8994 16.3583 68.6472 15.7417 68.649 14.9421L68.671 5.36138L68.6722 5.36196Z" fill="white"/>
<path d="M22.5854 24.5868L21 24.6006V20.3557L22.4996 20.3349C24.5963 20.1962 26.2925 18.6235 26.5481 16.5505V6.24965L30.876 6.24792L30.8777 16.356C30.8122 20.7356 26.9504 24.5499 22.5854 24.5868Z" fill="white"/>
<path d="M53.2521 20.8092L48.9272 20.8127V11.9728C48.8715 9.26892 50.5172 7.05723 52.8435 5.80286C53.4643 5.51791 54.0701 5.34924 54.7581 5.35097L59.4558 5.36133L56.3169 9.56366L55.103 9.60626C54.0787 9.76284 53.3275 10.6436 53.251 11.6666V20.8092H53.2521Z" fill="white"/>
<path d="M30.877 5.44943L26.5492 5.45979L26.5486 1.6017L30.8747 1.59998L30.877 5.44943Z" fill="white"/>
</g>
<g clip-path="url(#clip1_76_54)">
<path d="M11.7197 22.2001H4.47632C2.00921 22.2001 0 20.1743 0 17.6868V5.86646H16.2V17.6828C16.2 20.1703 14.1908 22.1961 11.7237 22.1961L11.7197 22.2001ZM1.57895 7.45842V17.6828C1.57895 19.2947 2.87763 20.6041 4.47632 20.6041H11.7197C13.3184 20.6041 14.6171 19.2947 14.6171 17.6828V7.45842H1.57895Z" fill="white"/>
<path d="M5.13317 1.59998H10.8668C12.5949 1.59998 14 2.77404 14 4.21797V4.59998H2V4.21797C2 2.77404 3.4051 1.59998 5.13317 1.59998Z" fill="#E9A322"/>
</g>
<defs>
<clipPath id="clip0_76_54">
<rect width="52" height="23" fill="white" transform="translate(21 1.59998)"/>
</clipPath>
<clipPath id="clip1_76_54">
<rect width="16.2" height="22.2" fill="white"/>
</clipPath>
</defs>
</svg>
